<svg width="21.821" height="20" fill="none" xmlns="http://www.w3.org/2000/svg"><path d="M20.925 3.641H3.863L3.61.816A.896.896 0 0 0 2.717 0H.897a.896.896 0 0 0 0 1.792h1l.136 1.512-.026-.292-.058-.65.98 10.913c.073.828.52 1.726 1.29 2.336C2.83 17.385 4.099 20 6.359 20c1.875 0 3.197-1.87 2.554-3.642h4.905c-.642 1.77.678 3.642 2.555 3.642a2.72 2.72 0 0 0 2.717-2.717 2.72 2.72 0 0 0-2.717-2.717H6.365c-.681 0-1.274-.41-1.53-1.009l14.321-.842a.896.896 0 0 0 .817-.677l1.821-7.283a.897.897 0 0 0-.87-1.114ZM1.898 1.792l.046.522-.046-.522Zm2.695 9.984 13.801-.811 1.383-5.531H4.024l.57 6.342Zm.84 5.507a.926.926 0 0 0 1.85 0 .926.926 0 0 0-1.85 0Zm10.94.925a.926.926 0 0 1 0-1.85.926.926 0 0 1 0 1.85Z" clip-rule="evenodd" fill="#69707D" fill-rule="evenodd"/></svg>