<svg width="137.5" height="20" fill="none" xmlns="http://www.w3.org/2000/svg"><path d="M15.736 15.394c0 3.853-2.758 4.606-7.52 4.606-3.505 0-5.913-.638-7.159-1.895C.118 17.155.008 16.033 0 15.243v-.316l.002-.302h4.32v.134c0 1.327.986 1.92 3.783 1.92 1.683 0 3.298-.212 3.298-1.221 0-1.167-1.503-1.39-3.172-1.586a56.146 56.146 0 0 1-.658-.08C3.112 13.201.349 12.212.349 9.115c0-2.168 1.25-4.752 7.2-4.752 6.425 0 7.776 2.849 7.776 5.238v.133h-4.282v-.134c0-1.223-1.038-1.87-3.493-1.87-2.352 0-2.843.853-2.843 1.331 0 .683.48 1.066 3.18 1.471l.35.052.278.042.561.085c3.28.51 6.66 1.283 6.66 4.682Zm5.691-2.885V20h-4.206V4.468h4.206v2.278h.198c1.002-1.369 2.416-2.28 5.194-2.28 6.556 0 6.731 5.503 6.732 7.766V20h-4.18V12.025c.002-.084.003-.173.003-.267 0-1.366-.204-3.67-3.77-3.67-3.63 0-4.177 2.318-4.177 4.421Zm30.176 2.086C51.173 17.93 48.48 20 43.386 20c-5.316 0-8.336-2.677-8.336-7.845 0-5.074 3.097-7.846 8.336-7.846 2.195 0 3.94.55 5.251 1.465v-.006c2.483 1.677 3.093 4.22 3.093 6.253 0 .422-.026.821-.067 1.187h-.155v.001H39.136c.288 2.076 1.529 3.105 4.25 3.105 2.512 0 3.757-.699 4.143-1.719h4.074Zm-4.118-4.169h-8.188c.486-1.574 1.764-2.431 4.089-2.431 2.994 0 3.755 1.267 4.099 2.431Zm23.014-5.969V20H66.29v-2.169h-.131C65.109 19.182 63.339 20 60.425 20c-6.509 0-7.242-5.679-7.242-7.771v-.137c.03-2.342.821-7.635 7.254-7.635 2.868 0 4.624.906 5.677 2.282h.176V4.457H70.5Zm-8.853 11.92c-3.997 0-4.448-3.031-4.448-4.148 0-1.21.425-4.148 4.455-4.148 3.631 0 4.374 2.044 4.374 4.148 0 2.35-.742 4.148-4.382 4.148Zm20.651-5.422L88.827 20H83.6l-4.357-6.037-3.02 2.976v3.015h-4.188V0h4.187v11.223l6.836-6.755h5.827l-6.588 6.487Zm24.646 3.64C106.512 17.93 103.82 20 98.726 20c-5.317 0-8.336-2.677-8.336-7.845 0-5.074 3.096-7.846 8.336-7.846 2.194 0 3.939.55 5.251 1.465v-.006c2.482 1.677 3.093 4.22 3.093 6.253 0 .422-.026.821-.067 1.187h-.155v.001H94.476c.288 2.076 1.528 3.105 4.25 3.105 2.512 0 3.756-.699 4.143-1.719h4.074Zm-4.119-4.169h-8.187c.486-1.574 1.763-2.431 4.089-2.431 2.994 0 3.755 1.267 4.098 2.431Zm9.936 2.605V20h-4.209V4.466h4.209v2.282h.262c.864-1.488 1.821-2.282 4.486-2.282 1.131 0 2.03.232 2.757.392l-.67 3.976c-.392-.11-1.455-.346-2.785-.346-3.119 0-4.05 2.439-4.05 4.543Zm24.74 2.363c0 3.853-2.758 4.606-7.519 4.606-3.505 0-5.914-.638-7.16-1.895-.939-.95-1.048-2.072-1.057-2.862l.001-.316.001-.302h4.319v.134c0 1.327.988 1.92 3.784 1.92 1.683 0 3.298-.212 3.298-1.221 0-1.167-1.503-1.39-3.172-1.586a55.467 55.467 0 0 1-.658-.08c-4.461-.59-7.224-1.579-7.224-4.676 0-2.168 1.249-4.752 7.201-4.752 6.425 0 7.775 2.849 7.775 5.238v.133h-4.282v-.134c0-1.223-1.038-1.87-3.493-1.87-2.352 0-2.843.853-2.843 1.331 0 .683.48 1.066 3.181 1.471l.349.052.279.042.56.085c3.28.51 6.66 1.283 6.66 4.682Z" clip-rule="evenodd" fill="#1D2026" fill-rule="evenodd"/></svg>