<svg width="14" height="16" fill="none" xmlns="http://www.w3.org/2000/svg"><path d="M0 1.75v.875C0 2.831.169 3 .375 3h13.25A.376.376 0 0 0 14 2.625V1.75a.748.748 0 0 0-.75-.75h-3.5L9.456.416A.75.75 0 0 0 8.784 0H5.213a.742.742 0 0 0-.67.416L4.25 1H.75a.748.748 0 0 0-.75.75Zm13 2.625V14.5a1.5 1.5 0 0 1-1.5 1.5h-9A1.5 1.5 0 0 1 1 14.5V4.375C1 4.169 1.169 4 1.375 4h11.25c.206 0 .375.169.375.375ZM4 6c.275 0 .5.225.5.5v7c0 .275-.225.5-.5.5a.502.502 0 0 1-.5-.5v-7c0-.275.225-.5.5-.5Zm3.5.5c0-.275-.225-.5-.5-.5s-.5.225-.5.5v7c0 .275.225.5.5.5s.5-.225.5-.5v-7ZM10 6c.275 0 .5.225.5.5v7c0 .275-.225.5-.5.5a.502.502 0 0 1-.5-.5v-7c0-.275.225-.5.5-.5Z" clip-rule="evenodd" fill="#C3CAD9" fill-rule="evenodd"/></svg>